# xmcd
#
# Track frame offsets:
#	150
#	14562
#	28334
#	41942
#	57416
#	72841
#	88591
#	101408
#	116006
#	130662
#	143273
#	158219
#	173068
#	182367
#
# Disc length: 2614 seconds
#
# Revision: 2
# Processed by: cddbd v1.4PL0 Copyright (c) Steve Scherf et al.
# Submitted via: EasyCDDAExtractor 5.0.6
#
DISCID=b80a340e
DTITLE=Vera Martinova a Schovanky - Svet je plnej ruznejch reci
DYEAR=2002
DGENRE=Country
TTITLE0=Cekani
TTITLE1=Az te uvidi
TTITLE2=Rakosi
TTITLE3=Mas ho akorat
TTITLE4=Navrat
TTITLE5=Ten, kdo poznal
TTITLE6=Chlap, co na me zbyl
TTITLE7=Odpoustim
TTITLE8=Krasny leto
TTITLE9=Lasem sluvek spoutana
TTITLE10=Pro se k ranu chlapi ztraceji
TTITLE11=Svet je plnej ruznejch reci
TTITLE12=Buchty makovy
TTITLE13=Whiskey, to je moje gusto
EXTD=
EXTT0=
EXTT1=
EXTT2=
EXTT3=
EXTT4=
EXTT5=
EXTT6=
EXTT7=
EXTT8=
EXTT9=
EXTT10=
EXTT11=
EXTT12=
EXTT13=
PLAYORDER=
